<mxfile host="Electron" agent="Mozilla/5.0 (Windows NT 10.0; Win64; x64) AppleWebKit/537.36 (KHTML, like Gecko) draw.io/26.2.2 Chrome/134.0.6998.178 Electron/35.1.2 Safari/537.36" version="26.2.2">
  <diagram name="Page-1" id="HO6ncZ2ROjCxZzeRgkBa">
    <mxGraphModel dx="1451" dy="853" grid="1" gridSize="10" guides="1" tooltips="1" connect="1" arrows="1" fold="1" page="1" pageScale="1" pageWidth="850" pageHeight="1100" math="0" shadow="0">
      <root>
        <mxCell id="0" />
        <mxCell id="1" parent="0" />
        <mxCell id="DgNN--W2aqH8vHgEQw8_-1" value="&lt;font style=&quot;font-size: 20px;&quot;&gt;&lt;b&gt;Sales Data Mart&lt;/b&gt;&lt;/font&gt; (Star Schema)" style="text;html=1;align=center;verticalAlign=middle;resizable=0;points=[];autosize=1;strokeColor=none;fillColor=none;" parent="1" vertex="1">
          <mxGeometry x="405" y="10" width="250" height="40" as="geometry" />
        </mxCell>
        <mxCell id="DgNN--W2aqH8vHgEQw8_-12" value="gold.dim_customers" style="shape=table;startSize=30;container=1;collapsible=1;childLayout=tableLayout;fixedRows=1;rowLines=0;fontStyle=1;align=center;resizeLast=1;html=1;rounded=1;fillColor=#fff2cc;strokeColor=#d6b656;fontSize=16;" parent="1" vertex="1">
          <mxGeometry x="70" y="130" width="240" height="465" as="geometry" />
        </mxCell>
        <mxCell id="DgNN--W2aqH8vHgEQw8_-13" value="" style="shape=tableRow;horizontal=0;startSize=0;swimlaneHead=0;swimlaneBody=0;fillColor=none;collapsible=0;dropTarget=0;points=[[0,0.5],[1,0.5]];portConstraint=eastwest;top=0;left=0;right=0;bottom=1;fontSize=16;" parent="DgNN--W2aqH8vHgEQw8_-12" vertex="1">
          <mxGeometry y="30" width="240" height="30" as="geometry" />
        </mxCell>
        <mxCell id="DgNN--W2aqH8vHgEQw8_-14" value="PK" style="shape=partialRectangle;connectable=0;fillColor=none;top=0;left=0;bottom=0;right=0;fontStyle=1;overflow=hidden;whiteSpace=wrap;html=1;fontSize=16;" parent="DgNN--W2aqH8vHgEQw8_-13" vertex="1">
          <mxGeometry width="30" height="30" as="geometry">
            <mxRectangle width="30" height="30" as="alternateBounds" />
          </mxGeometry>
        </mxCell>
        <mxCell id="DgNN--W2aqH8vHgEQw8_-15" value="customer_key" style="shape=partialRectangle;connectable=0;fillColor=none;top=0;left=0;bottom=0;right=0;align=left;spacingLeft=6;fontStyle=5;overflow=hidden;whiteSpace=wrap;html=1;fontSize=16;" parent="DgNN--W2aqH8vHgEQw8_-13" vertex="1">
          <mxGeometry x="30" width="210" height="30" as="geometry">
            <mxRectangle width="210" height="30" as="alternateBounds" />
          </mxGeometry>
        </mxCell>
        <mxCell id="DgNN--W2aqH8vHgEQw8_-16" value="" style="shape=tableRow;horizontal=0;startSize=0;swimlaneHead=0;swimlaneBody=0;fillColor=none;collapsible=0;dropTarget=0;points=[[0,0.5],[1,0.5]];portConstraint=eastwest;top=0;left=0;right=0;bottom=0;fontSize=16;fontStyle=1" parent="DgNN--W2aqH8vHgEQw8_-12" vertex="1">
          <mxGeometry y="60" width="240" height="45" as="geometry" />
        </mxCell>
        <mxCell id="DgNN--W2aqH8vHgEQw8_-17" value="" style="shape=partialRectangle;connectable=0;fillColor=none;top=0;left=0;bottom=0;right=0;editable=1;overflow=hidden;whiteSpace=wrap;html=1;fontSize=16;fontStyle=1" parent="DgNN--W2aqH8vHgEQw8_-16" vertex="1">
          <mxGeometry width="30" height="45" as="geometry">
            <mxRectangle width="30" height="45" as="alternateBounds" />
          </mxGeometry>
        </mxCell>
        <mxCell id="DgNN--W2aqH8vHgEQw8_-18" value="customer_id&lt;span style=&quot;white-space: pre;&quot;&gt;&#x9;&lt;/span&gt;&lt;span style=&quot;white-space: pre;&quot;&gt;&#x9;&lt;/span&gt;&lt;span style=&quot;white-space: pre;&quot;&gt;&#x9;&lt;/span&gt;" style="shape=partialRectangle;connectable=0;fillColor=none;top=0;left=0;bottom=0;right=0;align=left;spacingLeft=6;overflow=hidden;whiteSpace=wrap;html=1;fontSize=16;fontStyle=1" parent="DgNN--W2aqH8vHgEQw8_-16" vertex="1">
          <mxGeometry x="30" width="210" height="45" as="geometry">
            <mxRectangle width="210" height="45" as="alternateBounds" />
          </mxGeometry>
        </mxCell>
        <mxCell id="DgNN--W2aqH8vHgEQw8_-19" value="" style="shape=tableRow;horizontal=0;startSize=0;swimlaneHead=0;swimlaneBody=0;fillColor=none;collapsible=0;dropTarget=0;points=[[0,0.5],[1,0.5]];portConstraint=eastwest;top=0;left=0;right=0;bottom=0;fontSize=16;fontStyle=1" parent="DgNN--W2aqH8vHgEQw8_-12" vertex="1">
          <mxGeometry y="105" width="240" height="45" as="geometry" />
        </mxCell>
        <mxCell id="DgNN--W2aqH8vHgEQw8_-20" value="" style="shape=partialRectangle;connectable=0;fillColor=none;top=0;left=0;bottom=0;right=0;editable=1;overflow=hidden;whiteSpace=wrap;html=1;fontSize=16;fontStyle=1" parent="DgNN--W2aqH8vHgEQw8_-19" vertex="1">
          <mxGeometry width="30" height="45" as="geometry">
            <mxRectangle width="30" height="45" as="alternateBounds" />
          </mxGeometry>
        </mxCell>
        <mxCell id="DgNN--W2aqH8vHgEQw8_-21" value="customer_number" style="shape=partialRectangle;connectable=0;fillColor=none;top=0;left=0;bottom=0;right=0;align=left;spacingLeft=6;overflow=hidden;whiteSpace=wrap;html=1;fontSize=16;fontStyle=1" parent="DgNN--W2aqH8vHgEQw8_-19" vertex="1">
          <mxGeometry x="30" width="210" height="45" as="geometry">
            <mxRectangle width="210" height="45" as="alternateBounds" />
          </mxGeometry>
        </mxCell>
        <mxCell id="DgNN--W2aqH8vHgEQw8_-22" value="" style="shape=tableRow;horizontal=0;startSize=0;swimlaneHead=0;swimlaneBody=0;fillColor=none;collapsible=0;dropTarget=0;points=[[0,0.5],[1,0.5]];portConstraint=eastwest;top=0;left=0;right=0;bottom=0;fontSize=16;fontStyle=1" parent="DgNN--W2aqH8vHgEQw8_-12" vertex="1">
          <mxGeometry y="150" width="240" height="45" as="geometry" />
        </mxCell>
        <mxCell id="DgNN--W2aqH8vHgEQw8_-23" value="" style="shape=partialRectangle;connectable=0;fillColor=none;top=0;left=0;bottom=0;right=0;editable=1;overflow=hidden;whiteSpace=wrap;html=1;fontSize=16;fontStyle=1" parent="DgNN--W2aqH8vHgEQw8_-22" vertex="1">
          <mxGeometry width="30" height="45" as="geometry">
            <mxRectangle width="30" height="45" as="alternateBounds" />
          </mxGeometry>
        </mxCell>
        <mxCell id="DgNN--W2aqH8vHgEQw8_-24" value="first_name" style="shape=partialRectangle;connectable=0;fillColor=none;top=0;left=0;bottom=0;right=0;align=left;spacingLeft=6;overflow=hidden;whiteSpace=wrap;html=1;fontSize=16;fontStyle=1" parent="DgNN--W2aqH8vHgEQw8_-22" vertex="1">
          <mxGeometry x="30" width="210" height="45" as="geometry">
            <mxRectangle width="210" height="45" as="alternateBounds" />
          </mxGeometry>
        </mxCell>
        <mxCell id="DgNN--W2aqH8vHgEQw8_-25" style="shape=tableRow;horizontal=0;startSize=0;swimlaneHead=0;swimlaneBody=0;fillColor=none;collapsible=0;dropTarget=0;points=[[0,0.5],[1,0.5]];portConstraint=eastwest;top=0;left=0;right=0;bottom=0;fontSize=16;fontStyle=1" parent="DgNN--W2aqH8vHgEQw8_-12" vertex="1">
          <mxGeometry y="195" width="240" height="45" as="geometry" />
        </mxCell>
        <mxCell id="DgNN--W2aqH8vHgEQw8_-26" style="shape=partialRectangle;connectable=0;fillColor=none;top=0;left=0;bottom=0;right=0;editable=1;overflow=hidden;whiteSpace=wrap;html=1;fontSize=16;fontStyle=1" parent="DgNN--W2aqH8vHgEQw8_-25" vertex="1">
          <mxGeometry width="30" height="45" as="geometry">
            <mxRectangle width="30" height="45" as="alternateBounds" />
          </mxGeometry>
        </mxCell>
        <mxCell id="DgNN--W2aqH8vHgEQw8_-27" value="last_name" style="shape=partialRectangle;connectable=0;fillColor=none;top=0;left=0;bottom=0;right=0;align=left;spacingLeft=6;overflow=hidden;whiteSpace=wrap;html=1;fontSize=16;fontStyle=1" parent="DgNN--W2aqH8vHgEQw8_-25" vertex="1">
          <mxGeometry x="30" width="210" height="45" as="geometry">
            <mxRectangle width="210" height="45" as="alternateBounds" />
          </mxGeometry>
        </mxCell>
        <mxCell id="DgNN--W2aqH8vHgEQw8_-37" style="shape=tableRow;horizontal=0;startSize=0;swimlaneHead=0;swimlaneBody=0;fillColor=none;collapsible=0;dropTarget=0;points=[[0,0.5],[1,0.5]];portConstraint=eastwest;top=0;left=0;right=0;bottom=0;fontSize=16;fontStyle=1" parent="DgNN--W2aqH8vHgEQw8_-12" vertex="1">
          <mxGeometry y="240" width="240" height="45" as="geometry" />
        </mxCell>
        <mxCell id="DgNN--W2aqH8vHgEQw8_-38" style="shape=partialRectangle;connectable=0;fillColor=none;top=0;left=0;bottom=0;right=0;editable=1;overflow=hidden;whiteSpace=wrap;html=1;fontSize=16;fontStyle=1" parent="DgNN--W2aqH8vHgEQw8_-37" vertex="1">
          <mxGeometry width="30" height="45" as="geometry">
            <mxRectangle width="30" height="45" as="alternateBounds" />
          </mxGeometry>
        </mxCell>
        <mxCell id="DgNN--W2aqH8vHgEQw8_-39" value="country" style="shape=partialRectangle;connectable=0;fillColor=none;top=0;left=0;bottom=0;right=0;align=left;spacingLeft=6;overflow=hidden;whiteSpace=wrap;html=1;fontSize=16;fontStyle=1" parent="DgNN--W2aqH8vHgEQw8_-37" vertex="1">
          <mxGeometry x="30" width="210" height="45" as="geometry">
            <mxRectangle width="210" height="45" as="alternateBounds" />
          </mxGeometry>
        </mxCell>
        <mxCell id="DgNN--W2aqH8vHgEQw8_-34" style="shape=tableRow;horizontal=0;startSize=0;swimlaneHead=0;swimlaneBody=0;fillColor=none;collapsible=0;dropTarget=0;points=[[0,0.5],[1,0.5]];portConstraint=eastwest;top=0;left=0;right=0;bottom=0;fontSize=16;fontStyle=1" parent="DgNN--W2aqH8vHgEQw8_-12" vertex="1">
          <mxGeometry y="285" width="240" height="45" as="geometry" />
        </mxCell>
        <mxCell id="DgNN--W2aqH8vHgEQw8_-35" style="shape=partialRectangle;connectable=0;fillColor=none;top=0;left=0;bottom=0;right=0;editable=1;overflow=hidden;whiteSpace=wrap;html=1;fontSize=16;fontStyle=1" parent="DgNN--W2aqH8vHgEQw8_-34" vertex="1">
          <mxGeometry width="30" height="45" as="geometry">
            <mxRectangle width="30" height="45" as="alternateBounds" />
          </mxGeometry>
        </mxCell>
        <mxCell id="DgNN--W2aqH8vHgEQw8_-36" value="marital status" style="shape=partialRectangle;connectable=0;fillColor=none;top=0;left=0;bottom=0;right=0;align=left;spacingLeft=6;overflow=hidden;whiteSpace=wrap;html=1;fontSize=16;fontStyle=1" parent="DgNN--W2aqH8vHgEQw8_-34" vertex="1">
          <mxGeometry x="30" width="210" height="45" as="geometry">
            <mxRectangle width="210" height="45" as="alternateBounds" />
          </mxGeometry>
        </mxCell>
        <mxCell id="DgNN--W2aqH8vHgEQw8_-31" style="shape=tableRow;horizontal=0;startSize=0;swimlaneHead=0;swimlaneBody=0;fillColor=none;collapsible=0;dropTarget=0;points=[[0,0.5],[1,0.5]];portConstraint=eastwest;top=0;left=0;right=0;bottom=0;fontSize=16;fontStyle=1" parent="DgNN--W2aqH8vHgEQw8_-12" vertex="1">
          <mxGeometry y="330" width="240" height="45" as="geometry" />
        </mxCell>
        <mxCell id="DgNN--W2aqH8vHgEQw8_-32" style="shape=partialRectangle;connectable=0;fillColor=none;top=0;left=0;bottom=0;right=0;editable=1;overflow=hidden;whiteSpace=wrap;html=1;fontSize=16;fontStyle=1" parent="DgNN--W2aqH8vHgEQw8_-31" vertex="1">
          <mxGeometry width="30" height="45" as="geometry">
            <mxRectangle width="30" height="45" as="alternateBounds" />
          </mxGeometry>
        </mxCell>
        <mxCell id="DgNN--W2aqH8vHgEQw8_-33" value="gender" style="shape=partialRectangle;connectable=0;fillColor=none;top=0;left=0;bottom=0;right=0;align=left;spacingLeft=6;overflow=hidden;whiteSpace=wrap;html=1;fontSize=16;fontStyle=1" parent="DgNN--W2aqH8vHgEQw8_-31" vertex="1">
          <mxGeometry x="30" width="210" height="45" as="geometry">
            <mxRectangle width="210" height="45" as="alternateBounds" />
          </mxGeometry>
        </mxCell>
        <mxCell id="DgNN--W2aqH8vHgEQw8_-28" style="shape=tableRow;horizontal=0;startSize=0;swimlaneHead=0;swimlaneBody=0;fillColor=none;collapsible=0;dropTarget=0;points=[[0,0.5],[1,0.5]];portConstraint=eastwest;top=0;left=0;right=0;bottom=0;fontSize=16;fontStyle=1" parent="DgNN--W2aqH8vHgEQw8_-12" vertex="1">
          <mxGeometry y="375" width="240" height="45" as="geometry" />
        </mxCell>
        <mxCell id="DgNN--W2aqH8vHgEQw8_-29" style="shape=partialRectangle;connectable=0;fillColor=none;top=0;left=0;bottom=0;right=0;editable=1;overflow=hidden;whiteSpace=wrap;html=1;fontSize=16;fontStyle=1" parent="DgNN--W2aqH8vHgEQw8_-28" vertex="1">
          <mxGeometry width="30" height="45" as="geometry">
            <mxRectangle width="30" height="45" as="alternateBounds" />
          </mxGeometry>
        </mxCell>
        <mxCell id="DgNN--W2aqH8vHgEQw8_-30" value="birthdate" style="shape=partialRectangle;connectable=0;fillColor=none;top=0;left=0;bottom=0;right=0;align=left;spacingLeft=6;overflow=hidden;whiteSpace=wrap;html=1;fontSize=16;fontStyle=1" parent="DgNN--W2aqH8vHgEQw8_-28" vertex="1">
          <mxGeometry x="30" width="210" height="45" as="geometry">
            <mxRectangle width="210" height="45" as="alternateBounds" />
          </mxGeometry>
        </mxCell>
        <mxCell id="DgNN--W2aqH8vHgEQw8_-40" style="shape=tableRow;horizontal=0;startSize=0;swimlaneHead=0;swimlaneBody=0;fillColor=none;collapsible=0;dropTarget=0;points=[[0,0.5],[1,0.5]];portConstraint=eastwest;top=0;left=0;right=0;bottom=0;fontSize=16;fontStyle=1" parent="DgNN--W2aqH8vHgEQw8_-12" vertex="1">
          <mxGeometry y="420" width="240" height="45" as="geometry" />
        </mxCell>
        <mxCell id="DgNN--W2aqH8vHgEQw8_-41" style="shape=partialRectangle;connectable=0;fillColor=none;top=0;left=0;bottom=0;right=0;editable=1;overflow=hidden;whiteSpace=wrap;html=1;fontSize=16;fontStyle=1" parent="DgNN--W2aqH8vHgEQw8_-40" vertex="1">
          <mxGeometry width="30" height="45" as="geometry">
            <mxRectangle width="30" height="45" as="alternateBounds" />
          </mxGeometry>
        </mxCell>
        <mxCell id="DgNN--W2aqH8vHgEQw8_-42" value="country" style="shape=partialRectangle;connectable=0;fillColor=none;top=0;left=0;bottom=0;right=0;align=left;spacingLeft=6;overflow=hidden;whiteSpace=wrap;html=1;fontSize=16;fontStyle=1" parent="DgNN--W2aqH8vHgEQw8_-40" vertex="1">
          <mxGeometry x="30" width="210" height="45" as="geometry">
            <mxRectangle width="210" height="45" as="alternateBounds" />
          </mxGeometry>
        </mxCell>
        <mxCell id="DgNN--W2aqH8vHgEQw8_-43" value="gold.fact_sales" style="shape=table;startSize=30;container=1;collapsible=1;childLayout=tableLayout;fixedRows=1;rowLines=0;fontStyle=1;align=center;resizeLast=1;html=1;rounded=1;fillColor=#dae8fc;strokeColor=#6c8ebf;fontSize=16;" parent="1" vertex="1">
          <mxGeometry x="410" y="130" width="240" height="435" as="geometry" />
        </mxCell>
        <mxCell id="DgNN--W2aqH8vHgEQw8_-50" value="" style="shape=tableRow;horizontal=0;startSize=0;swimlaneHead=0;swimlaneBody=0;fillColor=none;collapsible=0;dropTarget=0;points=[[0,0.5],[1,0.5]];portConstraint=eastwest;top=0;left=0;right=0;bottom=0;fontSize=16;fontStyle=1" parent="DgNN--W2aqH8vHgEQw8_-43" vertex="1">
          <mxGeometry y="30" width="240" height="45" as="geometry" />
        </mxCell>
        <mxCell id="DgNN--W2aqH8vHgEQw8_-51" value="" style="shape=partialRectangle;connectable=0;fillColor=none;top=0;left=0;bottom=0;right=0;editable=1;overflow=hidden;whiteSpace=wrap;html=1;fontSize=16;fontStyle=1" parent="DgNN--W2aqH8vHgEQw8_-50" vertex="1">
          <mxGeometry width="40.000000000000114" height="45" as="geometry">
            <mxRectangle width="40.000000000000114" height="45" as="alternateBounds" />
          </mxGeometry>
        </mxCell>
        <mxCell id="DgNN--W2aqH8vHgEQw8_-52" value="order_number" style="shape=partialRectangle;connectable=0;fillColor=none;top=0;left=0;bottom=0;right=0;align=left;spacingLeft=6;overflow=hidden;whiteSpace=wrap;html=1;fontSize=16;fontStyle=1" parent="DgNN--W2aqH8vHgEQw8_-50" vertex="1">
          <mxGeometry x="40.000000000000114" width="199.9999999999999" height="45" as="geometry">
            <mxRectangle width="199.9999999999999" height="45" as="alternateBounds" />
          </mxGeometry>
        </mxCell>
        <mxCell id="DgNN--W2aqH8vHgEQw8_-53" value="" style="shape=tableRow;horizontal=0;startSize=0;swimlaneHead=0;swimlaneBody=0;fillColor=none;collapsible=0;dropTarget=0;points=[[0,0.5],[1,0.5]];portConstraint=eastwest;top=0;left=0;right=0;bottom=0;fontSize=16;fontStyle=1" parent="DgNN--W2aqH8vHgEQw8_-43" vertex="1">
          <mxGeometry y="75" width="240" height="45" as="geometry" />
        </mxCell>
        <mxCell id="DgNN--W2aqH8vHgEQw8_-54" value="FK1" style="shape=partialRectangle;connectable=0;fillColor=none;top=0;left=0;bottom=0;right=0;editable=1;overflow=hidden;whiteSpace=wrap;html=1;fontSize=16;fontStyle=1" parent="DgNN--W2aqH8vHgEQw8_-53" vertex="1">
          <mxGeometry width="40.000000000000114" height="45" as="geometry">
            <mxRectangle width="40.000000000000114" height="45" as="alternateBounds" />
          </mxGeometry>
        </mxCell>
        <mxCell id="DgNN--W2aqH8vHgEQw8_-55" value="product_key" style="shape=partialRectangle;connectable=0;fillColor=none;top=0;left=0;bottom=0;right=0;align=left;spacingLeft=6;overflow=hidden;whiteSpace=wrap;html=1;fontSize=16;fontStyle=1" parent="DgNN--W2aqH8vHgEQw8_-53" vertex="1">
          <mxGeometry x="40.000000000000114" width="199.9999999999999" height="45" as="geometry">
            <mxRectangle width="199.9999999999999" height="45" as="alternateBounds" />
          </mxGeometry>
        </mxCell>
        <mxCell id="DgNN--W2aqH8vHgEQw8_-56" style="shape=tableRow;horizontal=0;startSize=0;swimlaneHead=0;swimlaneBody=0;fillColor=none;collapsible=0;dropTarget=0;points=[[0,0.5],[1,0.5]];portConstraint=eastwest;top=0;left=0;right=0;bottom=0;fontSize=16;fontStyle=1" parent="DgNN--W2aqH8vHgEQw8_-43" vertex="1">
          <mxGeometry y="120" width="240" height="45" as="geometry" />
        </mxCell>
        <mxCell id="DgNN--W2aqH8vHgEQw8_-57" value="FK2" style="shape=partialRectangle;connectable=0;fillColor=none;top=0;left=0;bottom=0;right=0;editable=1;overflow=hidden;whiteSpace=wrap;html=1;fontSize=16;fontStyle=1" parent="DgNN--W2aqH8vHgEQw8_-56" vertex="1">
          <mxGeometry width="40.000000000000114" height="45" as="geometry">
            <mxRectangle width="40.000000000000114" height="45" as="alternateBounds" />
          </mxGeometry>
        </mxCell>
        <mxCell id="DgNN--W2aqH8vHgEQw8_-58" value="customer_key" style="shape=partialRectangle;connectable=0;fillColor=none;top=0;left=0;bottom=0;right=0;align=left;spacingLeft=6;overflow=hidden;whiteSpace=wrap;html=1;fontSize=16;fontStyle=1" parent="DgNN--W2aqH8vHgEQw8_-56" vertex="1">
          <mxGeometry x="40.000000000000114" width="199.9999999999999" height="45" as="geometry">
            <mxRectangle width="199.9999999999999" height="45" as="alternateBounds" />
          </mxGeometry>
        </mxCell>
        <mxCell id="DgNN--W2aqH8vHgEQw8_-59" style="shape=tableRow;horizontal=0;startSize=0;swimlaneHead=0;swimlaneBody=0;fillColor=none;collapsible=0;dropTarget=0;points=[[0,0.5],[1,0.5]];portConstraint=eastwest;top=0;left=0;right=0;bottom=0;fontSize=16;fontStyle=1" parent="DgNN--W2aqH8vHgEQw8_-43" vertex="1">
          <mxGeometry y="165" width="240" height="45" as="geometry" />
        </mxCell>
        <mxCell id="DgNN--W2aqH8vHgEQw8_-60" style="shape=partialRectangle;connectable=0;fillColor=none;top=0;left=0;bottom=0;right=0;editable=1;overflow=hidden;whiteSpace=wrap;html=1;fontSize=16;fontStyle=1" parent="DgNN--W2aqH8vHgEQw8_-59" vertex="1">
          <mxGeometry width="40.000000000000114" height="45" as="geometry">
            <mxRectangle width="40.000000000000114" height="45" as="alternateBounds" />
          </mxGeometry>
        </mxCell>
        <mxCell id="DgNN--W2aqH8vHgEQw8_-61" value="order_date" style="shape=partialRectangle;connectable=0;fillColor=none;top=0;left=0;bottom=0;right=0;align=left;spacingLeft=6;overflow=hidden;whiteSpace=wrap;html=1;fontSize=16;fontStyle=1" parent="DgNN--W2aqH8vHgEQw8_-59" vertex="1">
          <mxGeometry x="40.000000000000114" width="199.9999999999999" height="45" as="geometry">
            <mxRectangle width="199.9999999999999" height="45" as="alternateBounds" />
          </mxGeometry>
        </mxCell>
        <mxCell id="DgNN--W2aqH8vHgEQw8_-62" style="shape=tableRow;horizontal=0;startSize=0;swimlaneHead=0;swimlaneBody=0;fillColor=none;collapsible=0;dropTarget=0;points=[[0,0.5],[1,0.5]];portConstraint=eastwest;top=0;left=0;right=0;bottom=0;fontSize=16;fontStyle=1" parent="DgNN--W2aqH8vHgEQw8_-43" vertex="1">
          <mxGeometry y="210" width="240" height="45" as="geometry" />
        </mxCell>
        <mxCell id="DgNN--W2aqH8vHgEQw8_-63" style="shape=partialRectangle;connectable=0;fillColor=none;top=0;left=0;bottom=0;right=0;editable=1;overflow=hidden;whiteSpace=wrap;html=1;fontSize=16;fontStyle=1" parent="DgNN--W2aqH8vHgEQw8_-62" vertex="1">
          <mxGeometry width="40.000000000000114" height="45" as="geometry">
            <mxRectangle width="40.000000000000114" height="45" as="alternateBounds" />
          </mxGeometry>
        </mxCell>
        <mxCell id="DgNN--W2aqH8vHgEQw8_-64" value="shipping_date" style="shape=partialRectangle;connectable=0;fillColor=none;top=0;left=0;bottom=0;right=0;align=left;spacingLeft=6;overflow=hidden;whiteSpace=wrap;html=1;fontSize=16;fontStyle=1" parent="DgNN--W2aqH8vHgEQw8_-62" vertex="1">
          <mxGeometry x="40.000000000000114" width="199.9999999999999" height="45" as="geometry">
            <mxRectangle width="199.9999999999999" height="45" as="alternateBounds" />
          </mxGeometry>
        </mxCell>
        <mxCell id="DgNN--W2aqH8vHgEQw8_-65" style="shape=tableRow;horizontal=0;startSize=0;swimlaneHead=0;swimlaneBody=0;fillColor=none;collapsible=0;dropTarget=0;points=[[0,0.5],[1,0.5]];portConstraint=eastwest;top=0;left=0;right=0;bottom=0;fontSize=16;fontStyle=1" parent="DgNN--W2aqH8vHgEQw8_-43" vertex="1">
          <mxGeometry y="255" width="240" height="45" as="geometry" />
        </mxCell>
        <mxCell id="DgNN--W2aqH8vHgEQw8_-66" style="shape=partialRectangle;connectable=0;fillColor=none;top=0;left=0;bottom=0;right=0;editable=1;overflow=hidden;whiteSpace=wrap;html=1;fontSize=16;fontStyle=1" parent="DgNN--W2aqH8vHgEQw8_-65" vertex="1">
          <mxGeometry width="40.000000000000114" height="45" as="geometry">
            <mxRectangle width="40.000000000000114" height="45" as="alternateBounds" />
          </mxGeometry>
        </mxCell>
        <mxCell id="DgNN--W2aqH8vHgEQw8_-67" value="due_date" style="shape=partialRectangle;connectable=0;fillColor=none;top=0;left=0;bottom=0;right=0;align=left;spacingLeft=6;overflow=hidden;whiteSpace=wrap;html=1;fontSize=16;fontStyle=1" parent="DgNN--W2aqH8vHgEQw8_-65" vertex="1">
          <mxGeometry x="40.000000000000114" width="199.9999999999999" height="45" as="geometry">
            <mxRectangle width="199.9999999999999" height="45" as="alternateBounds" />
          </mxGeometry>
        </mxCell>
        <mxCell id="DgNN--W2aqH8vHgEQw8_-68" style="shape=tableRow;horizontal=0;startSize=0;swimlaneHead=0;swimlaneBody=0;fillColor=none;collapsible=0;dropTarget=0;points=[[0,0.5],[1,0.5]];portConstraint=eastwest;top=0;left=0;right=0;bottom=0;fontSize=16;fontStyle=1" parent="DgNN--W2aqH8vHgEQw8_-43" vertex="1">
          <mxGeometry y="300" width="240" height="45" as="geometry" />
        </mxCell>
        <mxCell id="DgNN--W2aqH8vHgEQw8_-69" style="shape=partialRectangle;connectable=0;fillColor=none;top=0;left=0;bottom=0;right=0;editable=1;overflow=hidden;whiteSpace=wrap;html=1;fontSize=16;fontStyle=1" parent="DgNN--W2aqH8vHgEQw8_-68" vertex="1">
          <mxGeometry width="40.000000000000114" height="45" as="geometry">
            <mxRectangle width="40.000000000000114" height="45" as="alternateBounds" />
          </mxGeometry>
        </mxCell>
        <mxCell id="DgNN--W2aqH8vHgEQw8_-70" value="sales_amount" style="shape=partialRectangle;connectable=0;fillColor=none;top=0;left=0;bottom=0;right=0;align=left;spacingLeft=6;overflow=hidden;whiteSpace=wrap;html=1;fontSize=16;fontStyle=1" parent="DgNN--W2aqH8vHgEQw8_-68" vertex="1">
          <mxGeometry x="40.000000000000114" width="199.9999999999999" height="45" as="geometry">
            <mxRectangle width="199.9999999999999" height="45" as="alternateBounds" />
          </mxGeometry>
        </mxCell>
        <mxCell id="DgNN--W2aqH8vHgEQw8_-71" style="shape=tableRow;horizontal=0;startSize=0;swimlaneHead=0;swimlaneBody=0;fillColor=none;collapsible=0;dropTarget=0;points=[[0,0.5],[1,0.5]];portConstraint=eastwest;top=0;left=0;right=0;bottom=0;fontSize=16;fontStyle=1" parent="DgNN--W2aqH8vHgEQw8_-43" vertex="1">
          <mxGeometry y="345" width="240" height="45" as="geometry" />
        </mxCell>
        <mxCell id="DgNN--W2aqH8vHgEQw8_-72" style="shape=partialRectangle;connectable=0;fillColor=none;top=0;left=0;bottom=0;right=0;editable=1;overflow=hidden;whiteSpace=wrap;html=1;fontSize=16;fontStyle=1" parent="DgNN--W2aqH8vHgEQw8_-71" vertex="1">
          <mxGeometry width="40.000000000000114" height="45" as="geometry">
            <mxRectangle width="40.000000000000114" height="45" as="alternateBounds" />
          </mxGeometry>
        </mxCell>
        <mxCell id="DgNN--W2aqH8vHgEQw8_-73" value="quantity" style="shape=partialRectangle;connectable=0;fillColor=none;top=0;left=0;bottom=0;right=0;align=left;spacingLeft=6;overflow=hidden;whiteSpace=wrap;html=1;fontSize=16;fontStyle=1" parent="DgNN--W2aqH8vHgEQw8_-71" vertex="1">
          <mxGeometry x="40.000000000000114" width="199.9999999999999" height="45" as="geometry">
            <mxRectangle width="199.9999999999999" height="45" as="alternateBounds" />
          </mxGeometry>
        </mxCell>
        <mxCell id="DgNN--W2aqH8vHgEQw8_-74" style="shape=tableRow;horizontal=0;startSize=0;swimlaneHead=0;swimlaneBody=0;fillColor=none;collapsible=0;dropTarget=0;points=[[0,0.5],[1,0.5]];portConstraint=eastwest;top=0;left=0;right=0;bottom=0;fontSize=16;fontStyle=1" parent="DgNN--W2aqH8vHgEQw8_-43" vertex="1">
          <mxGeometry y="390" width="240" height="45" as="geometry" />
        </mxCell>
        <mxCell id="DgNN--W2aqH8vHgEQw8_-75" style="shape=partialRectangle;connectable=0;fillColor=none;top=0;left=0;bottom=0;right=0;editable=1;overflow=hidden;whiteSpace=wrap;html=1;fontSize=16;fontStyle=1" parent="DgNN--W2aqH8vHgEQw8_-74" vertex="1">
          <mxGeometry width="40.000000000000114" height="45" as="geometry">
            <mxRectangle width="40.000000000000114" height="45" as="alternateBounds" />
          </mxGeometry>
        </mxCell>
        <mxCell id="DgNN--W2aqH8vHgEQw8_-76" value="price" style="shape=partialRectangle;connectable=0;fillColor=none;top=0;left=0;bottom=0;right=0;align=left;spacingLeft=6;overflow=hidden;whiteSpace=wrap;html=1;fontSize=16;fontStyle=1" parent="DgNN--W2aqH8vHgEQw8_-74" vertex="1">
          <mxGeometry x="40.000000000000114" width="199.9999999999999" height="45" as="geometry">
            <mxRectangle width="199.9999999999999" height="45" as="alternateBounds" />
          </mxGeometry>
        </mxCell>
        <mxCell id="DgNN--W2aqH8vHgEQw8_-77" value="gold.dim_products" style="shape=table;startSize=30;container=1;collapsible=1;childLayout=tableLayout;fixedRows=1;rowLines=0;fontStyle=1;align=center;resizeLast=1;html=1;rounded=1;fillColor=#fff2cc;strokeColor=#d6b656;fontSize=16;" parent="1" vertex="1">
          <mxGeometry x="750" y="130" width="240" height="510" as="geometry" />
        </mxCell>
        <mxCell id="DgNN--W2aqH8vHgEQw8_-78" value="" style="shape=tableRow;horizontal=0;startSize=0;swimlaneHead=0;swimlaneBody=0;fillColor=none;collapsible=0;dropTarget=0;points=[[0,0.5],[1,0.5]];portConstraint=eastwest;top=0;left=0;right=0;bottom=1;fontSize=16;" parent="DgNN--W2aqH8vHgEQw8_-77" vertex="1">
          <mxGeometry y="30" width="240" height="30" as="geometry" />
        </mxCell>
        <mxCell id="DgNN--W2aqH8vHgEQw8_-79" value="PK" style="shape=partialRectangle;connectable=0;fillColor=none;top=0;left=0;bottom=0;right=0;fontStyle=1;overflow=hidden;whiteSpace=wrap;html=1;fontSize=16;" parent="DgNN--W2aqH8vHgEQw8_-78" vertex="1">
          <mxGeometry width="30" height="30" as="geometry">
            <mxRectangle width="30" height="30" as="alternateBounds" />
          </mxGeometry>
        </mxCell>
        <mxCell id="DgNN--W2aqH8vHgEQw8_-80" value="product_key&lt;span style=&quot;white-space: pre;&quot;&gt;&lt;span style=&quot;white-space: pre;&quot;&gt;&lt;span style=&quot;white-space: pre;&quot;&gt;&lt;span style=&quot;white-space: pre;&quot;&gt;&lt;span style=&quot;white-space: pre;&quot;&gt;&#x9;&lt;/span&gt;&lt;span style=&quot;white-space: pre;&quot;&gt;&#x9;&lt;/span&gt;&lt;/span&gt;&lt;/span&gt;&lt;/span&gt;&lt;/span&gt;" style="shape=partialRectangle;connectable=0;fillColor=none;top=0;left=0;bottom=0;right=0;align=left;spacingLeft=6;fontStyle=5;overflow=hidden;whiteSpace=wrap;html=1;fontSize=16;" parent="DgNN--W2aqH8vHgEQw8_-78" vertex="1">
          <mxGeometry x="30" width="210" height="30" as="geometry">
            <mxRectangle width="210" height="30" as="alternateBounds" />
          </mxGeometry>
        </mxCell>
        <mxCell id="DgNN--W2aqH8vHgEQw8_-81" value="" style="shape=tableRow;horizontal=0;startSize=0;swimlaneHead=0;swimlaneBody=0;fillColor=none;collapsible=0;dropTarget=0;points=[[0,0.5],[1,0.5]];portConstraint=eastwest;top=0;left=0;right=0;bottom=0;fontSize=16;fontStyle=1" parent="DgNN--W2aqH8vHgEQw8_-77" vertex="1">
          <mxGeometry y="60" width="240" height="45" as="geometry" />
        </mxCell>
        <mxCell id="DgNN--W2aqH8vHgEQw8_-82" value="" style="shape=partialRectangle;connectable=0;fillColor=none;top=0;left=0;bottom=0;right=0;editable=1;overflow=hidden;whiteSpace=wrap;html=1;fontSize=16;fontStyle=1" parent="DgNN--W2aqH8vHgEQw8_-81" vertex="1">
          <mxGeometry width="30" height="45" as="geometry">
            <mxRectangle width="30" height="45" as="alternateBounds" />
          </mxGeometry>
        </mxCell>
        <mxCell id="DgNN--W2aqH8vHgEQw8_-83" value="product_id&lt;span style=&quot;white-space: pre;&quot;&gt;&#x9;&lt;/span&gt;&lt;span style=&quot;white-space: pre;&quot;&gt;&#x9;&lt;/span&gt;&lt;span style=&quot;white-space: pre;&quot;&gt;&#x9;&lt;/span&gt;" style="shape=partialRectangle;connectable=0;fillColor=none;top=0;left=0;bottom=0;right=0;align=left;spacingLeft=6;overflow=hidden;whiteSpace=wrap;html=1;fontSize=16;fontStyle=1" parent="DgNN--W2aqH8vHgEQw8_-81" vertex="1">
          <mxGeometry x="30" width="210" height="45" as="geometry">
            <mxRectangle width="210" height="45" as="alternateBounds" />
          </mxGeometry>
        </mxCell>
        <mxCell id="DgNN--W2aqH8vHgEQw8_-84" value="" style="shape=tableRow;horizontal=0;startSize=0;swimlaneHead=0;swimlaneBody=0;fillColor=none;collapsible=0;dropTarget=0;points=[[0,0.5],[1,0.5]];portConstraint=eastwest;top=0;left=0;right=0;bottom=0;fontSize=16;fontStyle=1" parent="DgNN--W2aqH8vHgEQw8_-77" vertex="1">
          <mxGeometry y="105" width="240" height="45" as="geometry" />
        </mxCell>
        <mxCell id="DgNN--W2aqH8vHgEQw8_-85" value="" style="shape=partialRectangle;connectable=0;fillColor=none;top=0;left=0;bottom=0;right=0;editable=1;overflow=hidden;whiteSpace=wrap;html=1;fontSize=16;fontStyle=1" parent="DgNN--W2aqH8vHgEQw8_-84" vertex="1">
          <mxGeometry width="30" height="45" as="geometry">
            <mxRectangle width="30" height="45" as="alternateBounds" />
          </mxGeometry>
        </mxCell>
        <mxCell id="DgNN--W2aqH8vHgEQw8_-86" value="product_number" style="shape=partialRectangle;connectable=0;fillColor=none;top=0;left=0;bottom=0;right=0;align=left;spacingLeft=6;overflow=hidden;whiteSpace=wrap;html=1;fontSize=16;fontStyle=1" parent="DgNN--W2aqH8vHgEQw8_-84" vertex="1">
          <mxGeometry x="30" width="210" height="45" as="geometry">
            <mxRectangle width="210" height="45" as="alternateBounds" />
          </mxGeometry>
        </mxCell>
        <mxCell id="DgNN--W2aqH8vHgEQw8_-87" value="" style="shape=tableRow;horizontal=0;startSize=0;swimlaneHead=0;swimlaneBody=0;fillColor=none;collapsible=0;dropTarget=0;points=[[0,0.5],[1,0.5]];portConstraint=eastwest;top=0;left=0;right=0;bottom=0;fontSize=16;fontStyle=1" parent="DgNN--W2aqH8vHgEQw8_-77" vertex="1">
          <mxGeometry y="150" width="240" height="45" as="geometry" />
        </mxCell>
        <mxCell id="DgNN--W2aqH8vHgEQw8_-88" value="" style="shape=partialRectangle;connectable=0;fillColor=none;top=0;left=0;bottom=0;right=0;editable=1;overflow=hidden;whiteSpace=wrap;html=1;fontSize=16;fontStyle=1" parent="DgNN--W2aqH8vHgEQw8_-87" vertex="1">
          <mxGeometry width="30" height="45" as="geometry">
            <mxRectangle width="30" height="45" as="alternateBounds" />
          </mxGeometry>
        </mxCell>
        <mxCell id="DgNN--W2aqH8vHgEQw8_-89" value="product_name" style="shape=partialRectangle;connectable=0;fillColor=none;top=0;left=0;bottom=0;right=0;align=left;spacingLeft=6;overflow=hidden;whiteSpace=wrap;html=1;fontSize=16;fontStyle=1" parent="DgNN--W2aqH8vHgEQw8_-87" vertex="1">
          <mxGeometry x="30" width="210" height="45" as="geometry">
            <mxRectangle width="210" height="45" as="alternateBounds" />
          </mxGeometry>
        </mxCell>
        <mxCell id="DgNN--W2aqH8vHgEQw8_-90" style="shape=tableRow;horizontal=0;startSize=0;swimlaneHead=0;swimlaneBody=0;fillColor=none;collapsible=0;dropTarget=0;points=[[0,0.5],[1,0.5]];portConstraint=eastwest;top=0;left=0;right=0;bottom=0;fontSize=16;fontStyle=1" parent="DgNN--W2aqH8vHgEQw8_-77" vertex="1">
          <mxGeometry y="195" width="240" height="45" as="geometry" />
        </mxCell>
        <mxCell id="DgNN--W2aqH8vHgEQw8_-91" style="shape=partialRectangle;connectable=0;fillColor=none;top=0;left=0;bottom=0;right=0;editable=1;overflow=hidden;whiteSpace=wrap;html=1;fontSize=16;fontStyle=1" parent="DgNN--W2aqH8vHgEQw8_-90" vertex="1">
          <mxGeometry width="30" height="45" as="geometry">
            <mxRectangle width="30" height="45" as="alternateBounds" />
          </mxGeometry>
        </mxCell>
        <mxCell id="DgNN--W2aqH8vHgEQw8_-92" value="category_id" style="shape=partialRectangle;connectable=0;fillColor=none;top=0;left=0;bottom=0;right=0;align=left;spacingLeft=6;overflow=hidden;whiteSpace=wrap;html=1;fontSize=16;fontStyle=1" parent="DgNN--W2aqH8vHgEQw8_-90" vertex="1">
          <mxGeometry x="30" width="210" height="45" as="geometry">
            <mxRectangle width="210" height="45" as="alternateBounds" />
          </mxGeometry>
        </mxCell>
        <mxCell id="DgNN--W2aqH8vHgEQw8_-93" style="shape=tableRow;horizontal=0;startSize=0;swimlaneHead=0;swimlaneBody=0;fillColor=none;collapsible=0;dropTarget=0;points=[[0,0.5],[1,0.5]];portConstraint=eastwest;top=0;left=0;right=0;bottom=0;fontSize=16;fontStyle=1" parent="DgNN--W2aqH8vHgEQw8_-77" vertex="1">
          <mxGeometry y="240" width="240" height="45" as="geometry" />
        </mxCell>
        <mxCell id="DgNN--W2aqH8vHgEQw8_-94" style="shape=partialRectangle;connectable=0;fillColor=none;top=0;left=0;bottom=0;right=0;editable=1;overflow=hidden;whiteSpace=wrap;html=1;fontSize=16;fontStyle=1" parent="DgNN--W2aqH8vHgEQw8_-93" vertex="1">
          <mxGeometry width="30" height="45" as="geometry">
            <mxRectangle width="30" height="45" as="alternateBounds" />
          </mxGeometry>
        </mxCell>
        <mxCell id="DgNN--W2aqH8vHgEQw8_-95" value="category" style="shape=partialRectangle;connectable=0;fillColor=none;top=0;left=0;bottom=0;right=0;align=left;spacingLeft=6;overflow=hidden;whiteSpace=wrap;html=1;fontSize=16;fontStyle=1" parent="DgNN--W2aqH8vHgEQw8_-93" vertex="1">
          <mxGeometry x="30" width="210" height="45" as="geometry">
            <mxRectangle width="210" height="45" as="alternateBounds" />
          </mxGeometry>
        </mxCell>
        <mxCell id="DgNN--W2aqH8vHgEQw8_-96" style="shape=tableRow;horizontal=0;startSize=0;swimlaneHead=0;swimlaneBody=0;fillColor=none;collapsible=0;dropTarget=0;points=[[0,0.5],[1,0.5]];portConstraint=eastwest;top=0;left=0;right=0;bottom=0;fontSize=16;fontStyle=1" parent="DgNN--W2aqH8vHgEQw8_-77" vertex="1">
          <mxGeometry y="285" width="240" height="45" as="geometry" />
        </mxCell>
        <mxCell id="DgNN--W2aqH8vHgEQw8_-97" style="shape=partialRectangle;connectable=0;fillColor=none;top=0;left=0;bottom=0;right=0;editable=1;overflow=hidden;whiteSpace=wrap;html=1;fontSize=16;fontStyle=1" parent="DgNN--W2aqH8vHgEQw8_-96" vertex="1">
          <mxGeometry width="30" height="45" as="geometry">
            <mxRectangle width="30" height="45" as="alternateBounds" />
          </mxGeometry>
        </mxCell>
        <mxCell id="DgNN--W2aqH8vHgEQw8_-98" value="subcategory" style="shape=partialRectangle;connectable=0;fillColor=none;top=0;left=0;bottom=0;right=0;align=left;spacingLeft=6;overflow=hidden;whiteSpace=wrap;html=1;fontSize=16;fontStyle=1" parent="DgNN--W2aqH8vHgEQw8_-96" vertex="1">
          <mxGeometry x="30" width="210" height="45" as="geometry">
            <mxRectangle width="210" height="45" as="alternateBounds" />
          </mxGeometry>
        </mxCell>
        <mxCell id="DgNN--W2aqH8vHgEQw8_-99" style="shape=tableRow;horizontal=0;startSize=0;swimlaneHead=0;swimlaneBody=0;fillColor=none;collapsible=0;dropTarget=0;points=[[0,0.5],[1,0.5]];portConstraint=eastwest;top=0;left=0;right=0;bottom=0;fontSize=16;fontStyle=1" parent="DgNN--W2aqH8vHgEQw8_-77" vertex="1">
          <mxGeometry y="330" width="240" height="45" as="geometry" />
        </mxCell>
        <mxCell id="DgNN--W2aqH8vHgEQw8_-100" style="shape=partialRectangle;connectable=0;fillColor=none;top=0;left=0;bottom=0;right=0;editable=1;overflow=hidden;whiteSpace=wrap;html=1;fontSize=16;fontStyle=1" parent="DgNN--W2aqH8vHgEQw8_-99" vertex="1">
          <mxGeometry width="30" height="45" as="geometry">
            <mxRectangle width="30" height="45" as="alternateBounds" />
          </mxGeometry>
        </mxCell>
        <mxCell id="DgNN--W2aqH8vHgEQw8_-101" value="maintenance" style="shape=partialRectangle;connectable=0;fillColor=none;top=0;left=0;bottom=0;right=0;align=left;spacingLeft=6;overflow=hidden;whiteSpace=wrap;html=1;fontSize=16;fontStyle=1" parent="DgNN--W2aqH8vHgEQw8_-99" vertex="1">
          <mxGeometry x="30" width="210" height="45" as="geometry">
            <mxRectangle width="210" height="45" as="alternateBounds" />
          </mxGeometry>
        </mxCell>
        <mxCell id="DgNN--W2aqH8vHgEQw8_-102" style="shape=tableRow;horizontal=0;startSize=0;swimlaneHead=0;swimlaneBody=0;fillColor=none;collapsible=0;dropTarget=0;points=[[0,0.5],[1,0.5]];portConstraint=eastwest;top=0;left=0;right=0;bottom=0;fontSize=16;fontStyle=1" parent="DgNN--W2aqH8vHgEQw8_-77" vertex="1">
          <mxGeometry y="375" width="240" height="45" as="geometry" />
        </mxCell>
        <mxCell id="DgNN--W2aqH8vHgEQw8_-103" style="shape=partialRectangle;connectable=0;fillColor=none;top=0;left=0;bottom=0;right=0;editable=1;overflow=hidden;whiteSpace=wrap;html=1;fontSize=16;fontStyle=1" parent="DgNN--W2aqH8vHgEQw8_-102" vertex="1">
          <mxGeometry width="30" height="45" as="geometry">
            <mxRectangle width="30" height="45" as="alternateBounds" />
          </mxGeometry>
        </mxCell>
        <mxCell id="DgNN--W2aqH8vHgEQw8_-104" value="cost" style="shape=partialRectangle;connectable=0;fillColor=none;top=0;left=0;bottom=0;right=0;align=left;spacingLeft=6;overflow=hidden;whiteSpace=wrap;html=1;fontSize=16;fontStyle=1" parent="DgNN--W2aqH8vHgEQw8_-102" vertex="1">
          <mxGeometry x="30" width="210" height="45" as="geometry">
            <mxRectangle width="210" height="45" as="alternateBounds" />
          </mxGeometry>
        </mxCell>
        <mxCell id="DgNN--W2aqH8vHgEQw8_-105" style="shape=tableRow;horizontal=0;startSize=0;swimlaneHead=0;swimlaneBody=0;fillColor=none;collapsible=0;dropTarget=0;points=[[0,0.5],[1,0.5]];portConstraint=eastwest;top=0;left=0;right=0;bottom=0;fontSize=16;fontStyle=1" parent="DgNN--W2aqH8vHgEQw8_-77" vertex="1">
          <mxGeometry y="420" width="240" height="45" as="geometry" />
        </mxCell>
        <mxCell id="DgNN--W2aqH8vHgEQw8_-106" style="shape=partialRectangle;connectable=0;fillColor=none;top=0;left=0;bottom=0;right=0;editable=1;overflow=hidden;whiteSpace=wrap;html=1;fontSize=16;fontStyle=1" parent="DgNN--W2aqH8vHgEQw8_-105" vertex="1">
          <mxGeometry width="30" height="45" as="geometry">
            <mxRectangle width="30" height="45" as="alternateBounds" />
          </mxGeometry>
        </mxCell>
        <mxCell id="DgNN--W2aqH8vHgEQw8_-107" value="product_line" style="shape=partialRectangle;connectable=0;fillColor=none;top=0;left=0;bottom=0;right=0;align=left;spacingLeft=6;overflow=hidden;whiteSpace=wrap;html=1;fontSize=16;fontStyle=1" parent="DgNN--W2aqH8vHgEQw8_-105" vertex="1">
          <mxGeometry x="30" width="210" height="45" as="geometry">
            <mxRectangle width="210" height="45" as="alternateBounds" />
          </mxGeometry>
        </mxCell>
        <mxCell id="DgNN--W2aqH8vHgEQw8_-108" style="shape=tableRow;horizontal=0;startSize=0;swimlaneHead=0;swimlaneBody=0;fillColor=none;collapsible=0;dropTarget=0;points=[[0,0.5],[1,0.5]];portConstraint=eastwest;top=0;left=0;right=0;bottom=0;fontSize=16;fontStyle=1" parent="DgNN--W2aqH8vHgEQw8_-77" vertex="1">
          <mxGeometry y="465" width="240" height="45" as="geometry" />
        </mxCell>
        <mxCell id="DgNN--W2aqH8vHgEQw8_-109" style="shape=partialRectangle;connectable=0;fillColor=none;top=0;left=0;bottom=0;right=0;editable=1;overflow=hidden;whiteSpace=wrap;html=1;fontSize=16;fontStyle=1" parent="DgNN--W2aqH8vHgEQw8_-108" vertex="1">
          <mxGeometry width="30" height="45" as="geometry">
            <mxRectangle width="30" height="45" as="alternateBounds" />
          </mxGeometry>
        </mxCell>
        <mxCell id="DgNN--W2aqH8vHgEQw8_-110" value="start_date" style="shape=partialRectangle;connectable=0;fillColor=none;top=0;left=0;bottom=0;right=0;align=left;spacingLeft=6;overflow=hidden;whiteSpace=wrap;html=1;fontSize=16;fontStyle=1" parent="DgNN--W2aqH8vHgEQw8_-108" vertex="1">
          <mxGeometry x="30" width="210" height="45" as="geometry">
            <mxRectangle width="210" height="45" as="alternateBounds" />
          </mxGeometry>
        </mxCell>
        <mxCell id="DgNN--W2aqH8vHgEQw8_-111" value="" style="edgeStyle=entityRelationEdgeStyle;fontSize=12;html=1;endArrow=ERzeroToMany;startArrow=ERmandOne;rounded=0;exitX=1;exitY=0.5;exitDx=0;exitDy=0;entryX=0;entryY=0.5;entryDx=0;entryDy=0;" parent="1" source="DgNN--W2aqH8vHgEQw8_-13" target="DgNN--W2aqH8vHgEQw8_-56" edge="1">
          <mxGeometry width="100" height="100" relative="1" as="geometry">
            <mxPoint x="330" y="180" as="sourcePoint" />
            <mxPoint x="430" y="80" as="targetPoint" />
          </mxGeometry>
        </mxCell>
        <mxCell id="DgNN--W2aqH8vHgEQw8_-112" value="" style="edgeStyle=entityRelationEdgeStyle;fontSize=12;html=1;endArrow=ERzeroToMany;startArrow=ERmandOne;rounded=0;entryX=0.991;entryY=0.329;entryDx=0;entryDy=0;entryPerimeter=0;exitX=0;exitY=0.5;exitDx=0;exitDy=0;" parent="1" source="DgNN--W2aqH8vHgEQw8_-78" target="DgNN--W2aqH8vHgEQw8_-53" edge="1">
          <mxGeometry width="100" height="100" relative="1" as="geometry">
            <mxPoint x="720" y="150" as="sourcePoint" />
            <mxPoint x="820" y="50" as="targetPoint" />
          </mxGeometry>
        </mxCell>
      </root>
    </mxGraphModel>
  </diagram>
</mxfile>
